<svg xmlns="http://www.w3.org/2000/svg" xml:space="preserve" x="0px" y="0px" viewBox="0 0 1200 420"><style>.st0{fill:#e02b26}</style><g id="Layer_2"><path d="M202.7 207.1c0-15.5-11.6-28.2-26.6-30-2.5 9.6-3.8 19.7-3.8 30 0 10.4 1.3 20.4 3.8 30 15-1.8 26.6-14.5 26.6-30M220.3 197.6c-5.2 0-9.5 4.3-9.5 9.5s4.2 9.5 9.5 9.5c5.2 0 9.5-4.3 9.5-9.5s-4.3-9.5-9.5-9.5M351.4 207.1c0 15.5 11.6 28.2 26.6 30 2.5-9.6 3.8-19.7 3.8-30 0-10.4-1.3-20.4-3.8-30-15 1.8-26.6 14.6-26.6 30M333.8 197.6c-5.3 0-9.5 4.3-9.5 9.5s4.3 9.5 9.5 9.5 9.5-4.3 9.5-9.5-4.2-9.5-9.5-9.5M276.8 281.8c-15.5 0-28.2 11.6-30 26.6 9.6 2.5 19.7 3.8 30.1 3.8s20.4-1.3 30-3.8c-1.8-15-14.6-26.6-30.1-26.6M276.8 254.7c-5.3 0-9.5 4.3-9.5 9.5s4.2 9.5 9.5 9.5c5.2 0 9.5-4.3 9.5-9.5s-4.2-9.5-9.5-9.5M276.8 132.9c15.5 0 28.2-11.6 30-26.6-9.6-2.5-19.7-3.8-30-3.8-10.4 0-20.4 1.3-30.1 3.8 1.9 15 14.7 26.6 30.1 26.6M276.8 141.1c-5.3 0-9.5 4.3-9.5 9.5s4.2 9.5 9.5 9.5c5.2 0 9.5-4.3 9.5-9.5 0-5.3-4.2-9.5-9.5-9.5M329.5 259.8c-10.9 10.9-11.7 28.1-2.5 40 17.5-10.3 32.2-25 42.5-42.5-11.8-9.2-29-8.4-40 2.5M310.4 240.6a9.476 9.476 0 1 0 13.402 13.4 9.476 9.476 0 0 0-13.402-13.4M224.4 154.6c10.9-10.9 11.7-28.1 2.5-40-17.5 10.3-32.2 25-42.5 42.5 11.8 9.3 29 8.4 40-2.5M230.1 160.3a9.476 9.476 0 1 0 13.402 13.4 9.476 9.476 0 0 0-13.402-13.4M329.5 154.5c10.9 10.9 28.1 11.7 40 2.5-10.3-17.5-25-32.2-42.5-42.5-9.3 11.9-8.5 29.1 2.5 40M323.7 173.7a9.476 9.476 0 1 0-13.402-13.4 9.476 9.476 0 0 0 13.402 13.4M224.3 259.7c-10.9-10.9-28.1-11.7-40-2.5 10.3 17.5 25 32.2 42.5 42.5 9.2-11.9 8.4-29.1-2.5-40M230 240.5a9.476 9.476 0 1 0 13.4 0c-3.6-3.7-9.7-3.7-13.4 0M520.7 251.5c0 20.5-13.3 28.2-33.5 28.2h-.4c-20.2 0-33.5-7.4-33.5-28.2v-79.9c0-19.8 13.3-28.2 33.5-28.2h.4c20.2 0 33.5 8.4 33.5 28.2v15.8h-22.1V175c0-9.3-4.6-12.2-11.6-12.2s-11.6 2.9-11.6 12.2v73c0 9.3 4.6 12.2 11.6 12.2s11.6-2.9 11.6-12.2v-15.6h22.1zM598.9 248.4h-24.3l-4.8 29.7h-21.3l24.7-133.2H601l25.1 133.2h-22.4zm-2.8-18.2-9.3-59.2-9.3 59.2zM656.2 278.1V144.9h22.1l28 82.4v-82.4h20.1v133.2h-20.9l-29.1-86.6v86.6zM805.9 278.1h-24.3l-25.1-133.2h22.4l15.4 98.8 15.4-98.8H831zM896.9 248.4h-24.3l-4.8 29.7h-21.3l24.7-133.2H899l25.1 133.2h-22.4zm-2.9-18.2-9.3-59.2-9.3 59.2zM993.6 183.9v-10.1c0-8.4-4.8-11.4-11.2-11.4-6.5 0-11.2 3-11.2 11.4v9.1c0 6.8 2.3 9.9 8.6 13.5l15.6 8.8c12.7 7.2 20.4 13.1 20.4 27.4v19.2c0 20.5-12.7 27.8-32.9 27.8h-.4c-20.2 0-32.9-7-32.9-27.8v-14.1h21.7v11.1c0 8.2 4.8 11.8 11.4 11.8 6.7 0 11.4-3.6 11.4-11.8v-10.5c0-6.9-2.1-10.3-8.8-13.9l-15.4-8.8c-12.9-7.4-20.4-13.5-20.4-27.4v-17.5c0-19.8 14.5-27.4 32.7-27.4h.4c18.3 0 32.7 7.6 32.7 27.4v13.1h-21.7z" class="st0"/><path d="M0-.3h1200v420.7H0z" style="fill:none"/></g></svg>