<?xml version="1.0" encoding="UTF-8"?>
<svg version="1.1" xmlns="http://www.w3.org/2000/svg" width="1024" height="1024">
<path d="M0 0 C3.34978076 2.540489 6.73673971 5.02827017 10.12768555 7.51342773 C18.92294065 13.95943222 27.62250657 20.52088851 36.28369141 27.14575195 C41.42226708 31.07200049 46.59302041 34.93931914 51.84375 38.71484375 C59.16675195 44.033987 66.36439114 49.52728646 73.59375 54.97265625 C78.0129034 58.29630524 82.44051037 61.604997 86.90234375 64.87109375 C95.09191774 70.86802999 103.23631464 76.9120762 111.2578125 83.1328125 C112.33409912 83.96462036 112.33409912 83.96462036 113.43212891 84.81323242 C125.38092634 94.13329442 133.35391434 101.65293583 136.16015625 117.1796875 C137.4392073 128.14298224 135.18667102 138.14792819 128.77734375 147.23828125 C122.06848837 155.23266581 113.98198804 160.95277266 103.5703125 162.6953125 C84.3166924 164.29054915 72.64372447 156.11031133 58.37792969 144.37695312 C55.24365253 141.83525309 52.42026513 139.94744663 48.5703125 138.6953125 C47.91546875 139.24058594 47.260625 139.78585937 46.5859375 140.34765625 C40.26630156 145.56938934 33.83227705 150.56917826 27.24511719 155.45019531 C24.81922368 157.25370215 22.40554441 159.073311 19.99072266 160.89160156 C17.27013374 162.93757018 14.54324691 164.97506988 11.81640625 167.01269531 C10.246479 168.18877559 8.6789618 169.3680768 7.11328125 170.54980469 C4.58305523 172.45913423 2.04598241 174.35906094 -0.4921875 176.2578125 C-1.66986694 177.15149536 -1.66986694 177.15149536 -2.87133789 178.06323242 C-11.89478938 184.78228968 -20.63837327 187.90171183 -32.10546875 186.328125 C-43.01460502 183.50949649 -51.72199636 175.81980214 -60.34765625 168.9296875 C-71.46531344 160.07139806 -82.82141642 151.46348074 -94.37109375 143.17578125 C-96.4296875 141.6953125 -96.4296875 141.6953125 -98.39453125 139.87109375 C-100.40666262 138.40117909 -100.40666262 138.40117909 -102.85546875 139.24609375 C-105.74605672 140.87342021 -108.09950812 142.72214526 -110.6171875 144.8828125 C-123.03258567 155.24004306 -135.48903434 164.803404 -152.4296875 163.6953125 C-164.11588815 161.54536814 -173.04130425 156.20805377 -180.703125 147.203125 C-183.57348077 143.03396571 -185.07902817 138.54089824 -186.4296875 133.6953125 C-186.62046875 133.03015625 -186.81125 132.365 -187.0078125 131.6796875 C-189.242411 121.16879825 -186.35434078 110.10774862 -180.9296875 101.0078125 C-174.05946555 91.60825511 -163.14747337 84.89630805 -153.8828125 78.015625 C-148.97250761 74.3648817 -144.10628907 70.65728363 -139.2421875 66.9453125 C-138.35877686 66.27177734 -137.47536621 65.59824219 -136.56518555 64.90429688 C-132.07046048 61.47649534 -127.57882535 58.04469401 -123.08984375 54.609375 C-113.92283032 47.60059832 -104.70922365 40.66989566 -95.39770508 33.85424805 C-89.08009048 29.21328979 -82.88413604 24.42806961 -76.71069336 19.59765625 C-71.68171868 15.66304967 -66.61766084 11.78898019 -61.4921875 7.98046875 C-59.14752541 6.2309441 -56.81656848 4.46753166 -54.4921875 2.69140625 C-32.95364305 -13.72432095 -22.16341348 -16.83086287 0 0 Z " fill="#FFF8F0" transform="translate(537.4296875,196.3046875)"/>
<path d="M0 0 C2.10265193 1.43193706 4.13848667 2.92617707 6.16723633 4.4609375 C6.92649414 5.02167969 7.68575195 5.58242188 8.46801758 6.16015625 C15.37573205 11.284873 22.19879917 16.52482035 29.0246582 21.7578125 C35.4041177 26.63981241 41.87047819 31.38202486 48.39990234 36.06079102 C53.90161747 40.00718186 59.33187354 44.03916156 64.73779297 48.11547852 C70.80241191 52.68477366 76.90868561 57.19637936 83.03857422 61.67773438 C86.58736649 64.2767469 90.11234124 66.8879615 93.55004883 69.6328125 C94.09564453 70.06311768 94.64124023 70.49342285 95.20336914 70.93676758 C96.61458745 72.05702933 98.0126337 73.19383055 99.40942383 74.33203125 C101.73909821 75.95534134 101.73909821 75.95534134 104.25244141 75.46826172 C107.00538698 74.6670949 108.65947349 73.69401701 110.93676758 71.97265625 C111.69546143 71.40603271 112.45415527 70.83940918 113.23583984 70.25561523 C114.03820068 69.64274658 114.84056152 69.02987793 115.66723633 68.3984375 C116.9297522 67.45109741 116.9297522 67.45109741 118.21777344 66.48461914 C120.76945971 64.56790806 123.31256677 62.64024461 125.85473633 60.7109375 C128.53977977 58.68682783 131.22849469 56.66763042 133.91723633 54.6484375 C134.88294556 53.9205603 134.88294556 53.9205603 135.86816406 53.17797852 C140.7714391 49.49185007 145.74173927 45.90623674 150.72973633 42.3359375 C157.75229364 37.30500984 164.58826862 32.07112191 171.38110352 26.73535156 C176.38077634 22.82094689 181.45697733 19.05679717 186.6550293 15.41088867 C189.81544874 13.18833218 192.92437189 10.91538015 195.99536133 8.5703125 C197.05279541 7.76424561 197.05279541 7.76424561 198.1315918 6.94189453 C199.48389097 5.90682077 200.83220576 4.86651025 202.17553711 3.81982422 C212.81793957 -4.31524912 222.59340827 -6.4566214 235.85473633 -5.2890625 C245.42405544 -3.28052894 253.75575371 3.29581791 259.29223633 11.2109375 C265.25326545 21.09546884 267.44454371 31.89097348 264.62426758 43.28125 C260.3787849 56.68576892 250.7637826 63.87007696 239.54711914 71.67529297 C234.45255628 75.22883992 229.5529518 79.00151423 224.66723633 82.8359375 C219.18982236 87.12956723 213.68144605 91.33738728 208.02270508 95.390625 C203.41619015 98.76457058 198.8902052 102.24233684 194.35473633 105.7109375 C188.26031713 110.3705376 182.14937425 114.98658207 175.91723633 119.4609375 C171.34988494 122.8165426 166.85702262 126.26874632 162.35473633 129.7109375 C156.26460362 134.36710544 150.1607243 138.98361922 143.92895508 143.44921875 C141.19799067 145.45840349 138.50191338 147.50312857 135.81176758 149.56640625 C134.8862207 150.27603516 133.96067383 150.98566406 133.00708008 151.71679688 C131.15697542 153.13809461 129.30919644 154.56242646 127.46411133 155.99023438 C112.08759965 167.80333686 112.08759965 167.80333686 104.66723633 167.9609375 C103.5940918 167.99960937 103.5940918 167.99960937 102.49926758 168.0390625 C94.91446983 167.097965 89.64266399 163.42881072 83.85473633 158.7734375 C82.35664273 157.5981876 80.85793025 156.42372622 79.35864258 155.25 C78.60728027 154.65735352 77.85591797 154.06470703 77.08178711 153.45410156 C73.6908115 150.79990667 70.24416544 148.22254766 66.79223633 145.6484375 C65.4718649 144.66023498 64.15155244 143.67195366 62.83129883 142.68359375 C61.50584946 141.69261274 60.180328 140.70172815 58.85473633 139.7109375 C50.69984075 133.61522124 42.55852895 127.50662146 34.49975586 121.28417969 C29.55973221 117.47334796 24.57092279 113.73012841 19.57202148 109.99707031 C17.58342824 108.50774572 15.59982879 107.0118931 13.61645508 105.515625 C12.88982666 104.96825684 12.16319824 104.42088867 11.41455078 103.85693359 C9.97859634 102.77511386 8.54351066 101.69213983 7.109375 100.60791016 C6.45557861 100.11597168 5.80178223 99.6240332 5.12817383 99.1171875 C4.54471191 98.67697266 3.96125 98.23675781 3.36010742 97.78320312 C1.82670548 96.63248124 1.82670548 96.63248124 -0.14526367 95.7109375 C-0.14526367 95.0509375 -0.14526367 94.3909375 -0.14526367 93.7109375 C-0.72904785 93.4334668 -1.31283203 93.15599609 -1.91430664 92.87011719 C-4.03918483 91.76605485 -5.8989061 90.56101294 -7.84057617 89.1640625 C-8.90139404 88.40150146 -8.90139404 88.40150146 -9.98364258 87.62353516 C-10.73822754 87.07487793 -11.4928125 86.5262207 -12.27026367 85.9609375 C-13.0570752 85.39036621 -13.84388672 84.81979492 -14.65454102 84.23193359 C-20.42737113 80.02007124 -26.12344814 75.71510057 -31.77026367 71.3359375 C-32.49101074 70.7780957 -33.21175781 70.22025391 -33.9543457 69.64550781 C-45.17400801 60.87486017 -53.86408387 53.34421133 -57.83276367 39.2734375 C-59.06984388 29.12937976 -57.4630447 18.97495103 -51.52026367 10.3984375 C-38.24926458 -5.33384965 -18.27880324 -10.98350758 0 0 Z " fill="#FFF8F0" transform="translate(408.145263671875,612.2890625)"/>
<path d="M0 0 C0.144375 -1.134375 0.28875 -2.26875 0.4375 -3.4375 C1 -7 1 -7 2 -8 C3.47652664 -8.09880797 4.95767236 -8.13079245 6.4375 -8.1328125 C7.33210938 -8.13410156 8.22671875 -8.13539063 9.1484375 -8.13671875 C10.08945312 -8.13285156 11.03046875 -8.12898438 12 -8.125 C13.41152344 -8.13080078 13.41152344 -8.13080078 14.8515625 -8.13671875 C16.19347656 -8.13478516 16.19347656 -8.13478516 17.5625 -8.1328125 C18.38878906 -8.13168457 19.21507812 -8.13055664 20.06640625 -8.12939453 C22 -8 22 -8 23 -7 C23.1057248 -4.53393243 23.14678166 -2.0957364 23.14526367 0.37109375 C23.14862228 1.14372559 23.1519809 1.91635742 23.15544128 2.71240234 C23.16499738 5.28745099 23.1668981 7.86243468 23.16796875 10.4375 C23.1711831 12.23380561 23.17454731 14.03011096 23.17805481 15.82641602 C23.18406113 19.6095439 23.18589367 23.39264893 23.18530273 27.17578125 C23.18520216 31.97763698 23.19873767 36.77934133 23.21607494 41.5811615 C23.22731885 45.30314781 23.22921803 49.02509929 23.22869301 52.74710083 C23.22985906 54.51376863 23.23420172 56.28043776 23.24202538 58.04708862 C23.27718186 66.82212616 23.1289789 75.51511826 22.18481445 84.24609375 C22.11718745 84.91781113 22.04956045 85.5895285 21.97988415 86.28160095 C20.81374816 95.75258134 16.11345351 105.18233724 8.9453125 111.546875 C-5.87499189 122.61746382 -21.69833471 125.38429415 -40 123 C-43.36583976 122.44866033 -46.68364532 121.79493146 -50 121 C-50.71027344 120.84273437 -51.42054688 120.68546875 -52.15234375 120.5234375 C-54.56700458 119.83936868 -56.03440288 118.54865228 -58 117 C-59.65661761 115.98343919 -61.32111559 114.97934924 -63 114 C-62.39124245 109.39583374 -61.15277044 105.43516676 -59.4375 101.125 C-58.98246094 99.97257813 -58.52742188 98.82015625 -58.05859375 97.6328125 C-57.70925781 96.76398438 -57.35992187 95.89515625 -57 95 C-56.22398437 95.40992188 -55.44796875 95.81984375 -54.6484375 96.2421875 C-42.37706338 102.36323091 -28.64376853 105.45364238 -15.20703125 101.09375 C-9.07478714 98.41259157 -5.74091751 95.09376078 -3 89 C-1.99503148 85.98509443 -1.89664697 83.95818308 -1.9375 80.8125 C-1.94652344 79.91144531 -1.95554687 79.01039063 -1.96484375 78.08203125 C-1.97644531 77.39496094 -1.98804688 76.70789063 -2 76 C-2.64066406 76.40992188 -3.28132813 76.81984375 -3.94140625 77.2421875 C-14.67831129 83.9307513 -25.62519802 86.5180454 -38.1640625 83.859375 C-48.13830576 80.83687704 -56.95857104 75.59741813 -63 67 C-63 66.34 -63 65.68 -63 65 C-63.66 65 -64.32 65 -65 65 C-65.81974263 62.96123051 -66.6304807 60.91883925 -67.4375 58.875 C-67.88996094 57.73804688 -68.34242188 56.60109375 -68.80859375 55.4296875 C-73.56799226 41.72886163 -71.69848434 26.74996263 -65.75 13.8125 C-60.07431073 3.19996858 -51.30486615 -4.25782536 -39.75 -7.9375 C-24.85354755 -11.36858562 -12.09656334 -9.02859438 0 0 Z M-41 18 C-46.8194553 26.93525431 -47.82753759 34.34545357 -47 45 C-45.07455318 52.94246813 -41.47534056 57.4977548 -34.875 62.25 C-28.20613003 65.81639568 -20.15752928 65.64375784 -13 63.7265625 C-7.70743821 61.80387404 -4.06802783 58.6444578 -1 54 C-0.40358957 50.5103221 -0.40358957 50.5103221 -0.50390625 46.6875 C-0.5017234 45.6504895 -0.5017234 45.6504895 -0.49949646 44.5925293 C-0.50114991 43.13683846 -0.51264918 41.68112913 -0.53344727 40.22558594 C-0.56241645 38.00640067 -0.55404426 35.7896059 -0.54101562 33.5703125 C-0.32798604 24.76837655 -0.32798604 24.76837655 -4 17 C-14.58782915 8.57786317 -31.20157295 7.9367506 -41 18 Z " fill="#FFF8F0" transform="translate(438,453)"/>
<path d="M0 0 C8.58 0 17.16 0 26 0 C28.95442257 6.49972965 31.81243872 12.81601324 34.26171875 19.484375 C34.53844925 20.22907043 34.81517975 20.97376587 35.10029602 21.74102783 C35.67597638 23.2929442 36.24971885 24.84558079 36.8215332 26.39892578 C37.69168398 28.76135939 38.56901349 31.12103646 39.44726562 33.48046875 C40.0108396 35.00244763 40.57400515 36.52457781 41.13671875 38.046875 C41.39507004 38.74182068 41.65342133 39.43676636 41.91960144 40.152771 C43.1083689 43.39141585 44.18022451 46.59593111 45.05395508 49.93457031 C45.3661499 50.94616211 45.67834473 51.95775391 46 53 C46.66 53.33 47.32 53.66 48 54 C48.72851562 55.95776367 48.72851562 55.95776367 49.40625 58.48046875 C50.84285285 63.54718743 52.58937701 68.40809324 54.5 73.3125 C55.20475153 75.14310429 55.90915817 76.97384139 56.61328125 78.8046875 C56.99307129 79.78920898 57.37286133 80.77373047 57.76416016 81.78808594 C59.84834738 87.20483171 61.91169617 92.62946796 63.97216797 98.05526733 C64.66498687 99.87826184 65.35980379 101.70049663 66.0546875 103.52270508 C69.14251482 111.64692816 72.09849365 119.80781901 75 128 C66.42 128 57.84 128 49 128 C45.16030014 118.40075035 41.57414686 108.70125575 38 99 C21.5 99 5 99 -12 99 C-13.464375 103.0425 -14.92875 107.085 -16.4375 111.25 C-16.89825928 112.51875977 -17.35901855 113.78751953 -17.83374023 115.09472656 C-18.19669189 116.09987305 -18.55964355 117.10501953 -18.93359375 118.140625 C-19.30540771 119.16704102 -19.67722168 120.19345703 -20.06030273 121.25097656 C-21.10483697 124.18050164 -21.10483697 124.18050164 -22 128 C-30.58 128.33 -39.16 128.66 -48 129 C-47.27301968 124.63811809 -46.60864009 121.56852029 -45.05859375 117.58203125 C-44.64859131 116.5161377 -44.23858887 115.45024414 -43.81616211 114.35205078 C-43.36120361 113.18399902 -42.90624512 112.01594727 -42.4375 110.8125 C-41.42387205 108.18221971 -40.41500089 105.55012272 -39.40625 102.91796875 C-39.13534042 102.21240845 -38.86443085 101.50684814 -38.58531189 100.77990723 C-35.46926238 92.64789494 -32.4547424 84.47851592 -29.43222046 76.31140137 C-23.09302105 59.19138156 -16.64777557 42.11340572 -10.125 25.0625 C-9.53306351 23.51227142 -9.53306351 23.51227142 -8.9291687 21.9307251 C-7.81190819 19.00629229 -6.69168108 16.08301592 -5.5703125 13.16015625 C-5.2377092 12.28926865 -4.9051059 11.41838104 -4.56242371 10.52110291 C-4.25323502 9.71757889 -3.94404633 8.91405487 -3.62548828 8.08618164 C-3.22488693 7.0416256 -3.22488693 7.0416256 -2.81619263 5.97596741 C-1.97549098 3.9406647 -0.98480824 1.96961649 0 0 Z M12 29 C9.91745643 34.81620571 7.83620277 40.63287083 5.75610352 46.44995117 C5.04942014 48.42566157 4.34239455 50.40124961 3.63500977 52.37670898 C2.61382835 55.22867652 1.59390962 58.081093 0.57421875 60.93359375 C0.26159592 61.80584091 -0.05102692 62.67808807 -0.37312317 63.57676697 C-0.67320786 64.41695877 -0.97329254 65.25715057 -1.2824707 66.12280273 C-1.54228226 66.84894272 -1.80209381 67.5750827 -2.06977844 68.32322693 C-3.41788021 72.20247751 -4.70130976 76.10392928 -6 80 C6.54 80 19.08 80 32 80 C29.60422414 71.93731185 29.60422414 71.93731185 26.84375 64.0546875 C26.46089844 63.04019531 26.07804688 62.02570313 25.68359375 60.98046875 C25.29300781 59.95566406 24.90242187 58.93085938 24.5 57.875 C23.91412109 56.32619141 23.91412109 56.32619141 23.31640625 54.74609375 C22.55738908 52.73993726 21.7967914 50.73437787 21.03442383 48.72949219 C20.13138164 46.3466714 19.24122694 43.95959131 18.35546875 41.5703125 C17.25256838 38.66526658 16.0943442 35.82889754 14.8125 33 C14.46832031 32.236875 14.12414062 31.47375 13.76953125 30.6875 C13.51558594 30.130625 13.26164063 29.57375 13 29 C12.67 29 12.34 29 12 29 Z " fill="#FFF8F0" transform="translate(726,409)"/>
<path d="M0 0 C0 42.24 0 84.48 0 128 C-7.26 128.33 -14.52 128.66 -22 129 C-22.66 128.34 -23.32 127.68 -24 127 C-23.34 127 -22.68 127 -22 127 C-22.33 125.35 -22.66 123.7 -23 122 C-23.76183594 122.48210937 -24.52367187 122.96421875 -25.30859375 123.4609375 C-31.4439432 127.21414753 -36.78148809 130.3143037 -44 131 C-44.83917969 131.08121094 -45.67835938 131.16242188 -46.54296875 131.24609375 C-58.44431264 131.81282441 -69.04530011 127.73862954 -78 120 C-87.02296636 111.34784048 -90.49979872 102.55818482 -92.421875 90.4765625 C-92.9007093 87.03733453 -92.9007093 87.03733453 -94 84 C-93.505 83.01 -93.505 83.01 -93 82 C-92.73101027 79.8773202 -92.4847395 77.75173985 -92.25 75.625 C-90.38313741 62.31168065 -84.62242723 50.90557438 -74.0859375 42.34765625 C-64.23848146 35.98553577 -53.52822742 34.14444602 -42 35 C-39.33971143 35.59976077 -36.82600568 36.34520613 -34.25390625 37.24609375 C-31.85635621 38.04804723 -29.48514964 38.54855306 -27 39 C-27 39.99 -27 40.98 -27 42 C-25.515 42.495 -25.515 42.495 -24 43 C-24 28.81 -24 14.62 -24 0 C-18.616875 -0.2784375 -18.616875 -0.2784375 -13.125 -0.5625 C-11.99465332 -0.62381104 -10.86430664 -0.68512207 -9.69970703 -0.74829102 C-8.36721924 -0.81294556 -8.36721924 -0.81294556 -7.0078125 -0.87890625 C-6.09660645 -0.9260376 -5.18540039 -0.97316895 -4.24658203 -1.02172852 C-2 -1 -2 -1 0 0 Z M-62.4375 62.25 C-68.61262656 70.46605822 -69.6820998 80.06760161 -68.4375 90.0625 C-67.06850727 97.0237833 -64.52323595 102.24099538 -58.875 106.6640625 C-51.34639047 111.09702666 -42.93282414 111.21627537 -34.50390625 109.48828125 C-29.96998902 108.00554461 -27.08826991 105.55618959 -24 102 C-23.67 101.67 -23.34 101.34 -23 101 C-22.88662928 98.53747361 -22.83582366 96.10407594 -22.83203125 93.640625 C-22.82870285 92.89923279 -22.82537445 92.15784058 -22.82194519 91.39398193 C-22.81687119 89.82027814 -22.81453701 88.24656353 -22.81469727 86.67285156 C-22.81252168 84.2739052 -22.7944018 81.87542673 -22.77539062 79.4765625 C-22.77245455 77.94791824 -22.77047119 76.41927179 -22.76953125 74.890625 C-22.76234573 74.17585999 -22.75516022 73.46109497 -22.74775696 72.72467041 C-22.77178383 67.43687079 -23.32629587 63.72442244 -27.0625 59.875 C-37.95744765 52.92077809 -53.09618365 52.17060434 -62.4375 62.25 Z " fill="#FFF8F0" transform="translate(352,409)"/>
<path d="M0 0 C16.41267764 -0.44568614 31.01097063 -0.76802611 44.00390625 10.78125 C54.46322167 21.80532327 56.32931568 35.23395955 56.16796875 49.71875 C56 53 56 53 55 54 C53.03630847 54.0940067 51.06920801 54.11743381 49.10327148 54.11352539 C47.84203964 54.11344986 46.5808078 54.11337433 45.28135681 54.11329651 C43.89460206 54.1081891 42.50784771 54.10297309 41.12109375 54.09765625 C39.71004791 54.09579201 38.29900143 54.09436814 36.88795471 54.09336853 C33.16759465 54.08954379 29.4472734 54.0797139 25.72692871 54.06866455 C21.93319219 54.05844948 18.13944942 54.05387071 14.34570312 54.04882812 C6.89711769 54.03809158 -0.55143572 54.0210157 -8 54 C-7.37879354 55.91789954 -6.75288109 57.83427522 -6.125 59.75 C-5.77695313 60.81734375 -5.42890625 61.8846875 -5.0703125 62.984375 C-3.59617287 67.69183524 -3.59617287 67.69183524 -0.3125 71.0625 C0.8321875 71.5265625 0.8321875 71.5265625 2 72 C3.7015625 72.7734375 3.7015625 72.7734375 5.4375 73.5625 C16.34383087 77.96330017 26.23081653 76.08627647 37 72 C38.05703125 71.43925781 39.1140625 70.87851562 40.203125 70.30078125 C43 69 43 69 46 70 C47.53515625 72.43359375 47.53515625 72.43359375 49.0625 75.4375 C51.11709859 79.51870391 51.11709859 79.51870391 54 83 C53.34 83 52.68 83 52 83 C52 83.66 52 84.32 52 85 C38.47407316 95.26914186 22.06965619 97.7747059 5.60546875 95.5390625 C-5.91082644 92.9731776 -15.67432378 87.32099659 -23 78 C-29.16318987 68.080703 -31.36151114 58.73634429 -31.1875 47.1875 C-31.18685547 46.35541016 -31.18621094 45.52332031 -31.18554688 44.66601562 C-31.15851803 40.92101844 -31.02179162 37.62290105 -30 34 C-30.66 34 -31.32 34 -32 34 C-31.67 33.34 -31.34 32.68 -31 32 C-30.34 32.33 -29.68 32.66 -29 33 C-28.9175 32.175 -28.835 31.35 -28.75 30.5 C-26.65959429 20.74477334 -20.34093239 12.92249486 -12.3671875 7.06640625 C-8.25096643 4.5045194 -4.82314083 2.76109846 0 2 C0 1.34 0 0.68 0 0 Z M-4 27 C-6.56173558 31.24011406 -7 32.8838641 -7 38 C6.53 38 20.06 38 34 38 C32.89429539 29.00740866 32.89429539 29.00740866 27.44921875 22.51953125 C22.11666324 18.44303807 16.90466839 18.47300964 10.3671875 18.53125 C4.10496622 19.40302094 0.06849011 22.27175473 -4 27 Z " fill="#FFF8F0" transform="translate(193,444)"/>
<path d="M0 0 C8.33471093 7.42310192 12.9355694 17.97554017 14 29 C14.18936097 34.00809934 14.27782505 38.99268797 14 44 C13 45 13 45 10.60191345 45.12025452 C9.53824051 45.11803391 8.47456757 45.11581329 7.37866211 45.11352539 C6.17749252 45.11344986 4.97632294 45.11337433 3.73875427 45.11329651 C2.4314888 45.10813522 1.12422333 45.10297394 -0.22265625 45.09765625 C-1.56644132 45.09579198 -2.91022707 45.09436812 -4.25401306 45.09336853 C-7.79682277 45.08954402 -11.3395917 45.07971432 -14.88238525 45.06866455 C-18.49515227 45.05844899 -22.10792584 45.0538706 -25.72070312 45.04882812 C-32.8138188 45.03809198 -39.90690674 45.02101636 -47 45 C-47.33 46.32 -47.66 47.64 -48 49 C-48 47.68 -48 46.36 -48 45 C-49.29633621 46.06645115 -49.29633621 46.06645115 -49.0625 48.5625 C-49.041875 49.366875 -49.02125 50.17125 -49 51 C-48.34 51.33 -47.68 51.66 -47 52 C-46.71125 52.7425 -46.4225 53.485 -46.125 54.25 C-44.02791228 59.37621443 -40.981911 62.62226975 -36 65 C-23.97891331 68.87119741 -12.98616933 67.0026375 -1.734375 61.36328125 C1 60 1 60 3 60 C3.33773437 60.62648438 3.67546875 61.25296875 4.0234375 61.8984375 C4.46945312 62.71570313 4.91546875 63.53296875 5.375 64.375 C5.81585937 65.18710937 6.25671875 65.99921875 6.7109375 66.8359375 C7.9443893 69.10814302 7.9443893 69.10814302 10 71 C10.625 73.125 10.625 73.125 11 75 C-3.2572193 84.81735023 -17.06601946 89.0040946 -34.44921875 86.50390625 C-47.65953914 83.73677405 -58.24403397 77.83333706 -66.3125 66.8125 C-70.08247383 60.79524372 -73 53.1481576 -73 46 C-73.66 45.67 -74.32 45.34 -75 45 C-74.34 45 -73.68 45 -73 45 C-73.03480469 44.04480469 -73.06960938 43.08960938 -73.10546875 42.10546875 C-73.40921054 27.59818223 -70.54223324 13.722292 -60.375 2.625 C-43.98748847 -12.41516354 -17.59663643 -13.44187505 0 0 Z M-44.48828125 15.80078125 C-47.72587492 20.49757207 -48.12803766 22.89626363 -49 29 C-35.47 29 -21.94 29 -8 29 C-9.50640226 19.08007558 -9.50640226 19.08007558 -15.546875 12.81640625 C-24.29706227 7.41297864 -37.70210376 7.5896846 -44.48828125 15.80078125 Z " fill="#FFF8F0" transform="translate(550,453)"/>
<path d="M0 0 C6.65734669 5.81364335 9.52353833 14.55103155 10.27133179 23.16192627 C10.41355156 27.1558316 10.46689822 31.14080447 10.484375 35.13671875 C10.50125447 36.60217765 10.51940901 38.06762236 10.53877258 39.53305054 C10.58592479 43.35678673 10.61595747 47.18046539 10.64221191 51.00439453 C10.67219481 54.91971192 10.71866335 58.83483162 10.76367188 62.75 C10.84930826 70.40745322 10.91682789 78.06492146 10.97265625 85.72265625 C7.16053722 85.91852535 3.34795091 86.1029519 -0.46484375 86.28515625 C-1.55345703 86.34123047 -2.64207031 86.39730469 -3.76367188 86.45507812 C-4.79814453 86.50341797 -5.83261719 86.55175781 -6.8984375 86.6015625 C-8.3359436 86.67225952 -8.3359436 86.67225952 -9.80249023 86.74438477 C-12.02734375 86.72265625 -12.02734375 86.72265625 -13.02734375 85.72265625 C-13.13504188 83.88831162 -13.17361025 82.04987018 -13.18505859 80.21240234 C-13.19532074 79.0338266 -13.20558289 77.85525085 -13.21615601 76.64096069 C-13.22345734 75.3556546 -13.23075867 74.07034851 -13.23828125 72.74609375 C-13.25916388 70.73860627 -13.280064 68.7311188 -13.30198097 66.72364235 C-13.35517801 61.75935334 -13.39923839 56.79505367 -13.42871094 51.83056641 C-13.44565322 49.05174962 -13.4703953 46.27320768 -13.50357056 43.49453735 C-13.53449051 40.87581535 -13.55394727 38.25692699 -13.56063843 35.63803101 C-13.66116712 28.37142586 -13.98297601 22.92678314 -18.33984375 16.91015625 C-24.36177449 12.67250128 -32.02031803 13.03618539 -39.02734375 13.72265625 C-44.3085214 15.18420898 -48.11817913 16.95753104 -51.02734375 21.72265625 C-51.49857934 24.70822588 -51.49857934 24.70822588 -51.4597168 28.05175781 C-51.47951096 29.33278381 -51.49930511 30.61380981 -51.5196991 31.93365479 C-51.52646838 33.32686211 -51.5329153 34.72007104 -51.5390625 36.11328125 C-51.55591243 37.54247582 -51.5740631 38.9716556 -51.59346008 40.40081787 C-51.64093271 44.15559263 -51.67075945 47.91030741 -51.69689941 51.6652832 C-51.72671897 55.4996322 -51.77324445 59.33377461 -51.81835938 63.16796875 C-51.9043612 70.68609535 -51.97172001 78.20423702 -52.02734375 85.72265625 C-54.38392772 86.90094824 -55.55307611 86.76679997 -58.16015625 86.6015625 C-58.96582031 86.55322266 -59.77148438 86.50488281 -60.6015625 86.45507812 C-61.44332031 86.39900391 -62.28507813 86.34292969 -63.15234375 86.28515625 C-64.00183594 86.23294922 -64.85132813 86.18074219 -65.7265625 86.12695312 C-67.82713499 85.99714247 -69.92728566 85.86053885 -72.02734375 85.72265625 C-72.52234375 86.71265625 -72.52234375 86.71265625 -73.02734375 87.72265625 C-74.01734375 87.06265625 -75.00734375 86.40265625 -76.02734375 85.72265625 C-77.16975974 79.81428774 -77.17376777 73.92794164 -77.16015625 67.92578125 C-77.16152084 66.99023407 -77.16288544 66.05468689 -77.16429138 65.09078979 C-77.16631162 62.05137562 -77.16000892 59.01206044 -77.15234375 55.97265625 C-77.15112518 54.93751892 -77.14990662 53.90238159 -77.14865112 52.83587646 C-77.12888427 38.50227943 -76.97438085 24.17621468 -76.58984375 9.84765625 C-76.57028625 9.07345337 -76.55072876 8.29925049 -76.53057861 7.50158691 C-76.4743499 5.34848363 -76.41077309 3.19576001 -76.34375 1.04296875 C-76.30709229 -0.16085449 -76.27043457 -1.36467773 -76.23266602 -2.60498047 C-76.02734375 -5.27734375 -76.02734375 -5.27734375 -75.02734375 -6.27734375 C-73.64734438 -6.37599491 -72.26242576 -6.40813398 -70.87890625 -6.41015625 C-70.0384375 -6.41144531 -69.19796875 -6.41273438 -68.33203125 -6.4140625 C-67.00558594 -6.40826172 -67.00558594 -6.40826172 -65.65234375 -6.40234375 C-64.77578125 -6.40621094 -63.89921875 -6.41007812 -62.99609375 -6.4140625 C-61.73152344 -6.41212891 -61.73152344 -6.41212891 -60.44140625 -6.41015625 C-59.66748535 -6.40902832 -58.89356445 -6.40790039 -58.09619141 -6.40673828 C-56.02734375 -6.27734375 -56.02734375 -6.27734375 -53.02734375 -5.27734375 C-52.69734375 -2.96734375 -52.36734375 -0.65734375 -52.02734375 1.72265625 C-51.516875 1.32433594 -51.00640625 0.92601562 -50.48046875 0.515625 C-35.72081304 -10.24008155 -14.92680421 -10.71465487 0 0 Z " fill="#FFF8F0" transform="translate(656.02734375,451.27734375)"/>
<path d="M0 0 C1.91249246 1.36642753 3.75641475 2.79085692 5.59130859 4.25976562 C6.97235986 5.33327325 8.35388512 6.4061713 9.73583984 7.47851562 C10.78892334 8.30416016 10.78892334 8.30416016 11.86328125 9.14648438 C14.04405701 10.83406552 16.25307607 12.47471654 18.47802734 14.10351562 C19.19853271 14.63275635 19.91903809 15.16199707 20.66137695 15.70727539 C22.03828551 16.71681782 23.41787175 17.72272178 24.80053711 18.72436523 C28.41112446 21.39693284 31.71991732 23.89107444 34.02880859 27.82226562 C34.07178048 31.55604524 33.60750824 33.18651108 31.08740234 35.95507812 C30.22244141 36.6125 29.35748047 37.26992188 28.46630859 37.94726562 C27.47244141 38.71296875 26.47857422 39.47867188 25.45458984 40.26757812 C24.31271117 41.11920554 23.17078127 41.97076427 22.02880859 42.82226562 C20.75056673 43.79765227 19.4732586 44.77426351 18.19677734 45.75195312 C14.17257622 48.81913176 10.10936096 51.83059924 6.02880859 54.82226562 C5.41086426 55.27762695 4.79291992 55.73298828 4.15625 56.20214844 C2.43501588 57.46323213 0.70341142 58.70816305 -1.03369141 59.94726562 C-2.01466797 60.65109375 -2.99564453 61.35492187 -4.00634766 62.08007812 C-7.98537433 64.41821501 -11.74841535 65.95343423 -16.42041016 65.67773438 C-24.14686217 63.37193456 -29.77084523 58.85209502 -35.97119141 53.82226562 C-37.38518562 52.71467868 -38.80165687 51.61024287 -40.22119141 50.50976562 C-41.26726562 49.6821875 -41.26726562 49.6821875 -42.33447266 48.83789062 C-44.53453895 47.15606217 -46.75886845 45.53747032 -49.01416016 43.93164062 C-49.73635742 43.40997314 -50.45855469 42.88830566 -51.20263672 42.35083008 C-52.64773814 41.30858506 -54.10130939 40.27796147 -55.56396484 39.26049805 C-58.76424322 36.93578933 -60.71965569 35.28568319 -62.63134766 31.76367188 C-62.97119141 28.82226562 -62.97119141 28.82226562 -62.07666016 26.32617188 C-59.19321911 22.89707037 -55.88369868 20.40281909 -52.28369141 17.75976562 C-50.74849294 16.615291 -49.21333775 15.47075832 -47.67822266 14.32617188 C-46.50573975 13.45822998 -46.50573975 13.45822998 -45.30957031 12.57275391 C-43.0509796 10.88199431 -40.82587353 9.15569606 -38.60791016 7.41210938 C-37.91205811 6.87142822 -37.21620605 6.33074707 -36.49926758 5.77368164 C-35.18929806 4.75544724 -33.88556538 3.72911434 -32.58959961 2.69311523 C-22.64373005 -4.9397614 -11.03832997 -6.59510822 0 0 Z " fill="#FFF8F0" transform="translate(525.97119140625,595.177734375)"/>
<path d="M0 0 C7.26 0.33 14.52 0.66 22 1 C22.33 43.24 22.66 85.48 23 129 C20.56283785 130.21858107 18.96725943 130.12925575 16.24609375 130.1328125 C15.30958984 130.13410156 14.37308594 130.13539063 13.40820312 130.13671875 C12.42787109 130.13285156 11.44753906 130.12898437 10.4375 130.125 C9.45330078 130.12886719 8.46910156 130.13273438 7.45507812 130.13671875 C6.51986328 130.13542969 5.58464844 130.13414062 4.62109375 130.1328125 C3.7592749 130.13168457 2.89745605 130.13055664 2.00952148 130.12939453 C0 130 0 130 -1 129 C-1.15786308 127.14825294 -1.25107356 125.2909089 -1.31640625 123.43359375 C-1.35830078 122.30888672 -1.40019531 121.18417969 -1.44335938 120.02539062 C-1.48267578 118.84138672 -1.52199219 117.65738281 -1.5625 116.4375 C-1.62727539 114.65569336 -1.62727539 114.65569336 -1.69335938 112.83789062 C-1.79983546 109.89205216 -1.90184841 106.9461257 -2 104 C-2.33 104 -2.66 104 -3 104 C-3 85.52 -3 67.04 -3 48 C-2.67 48 -2.34 48 -2 48 C-1.98969254 47.41340103 -1.97938507 46.82680206 -1.96876526 46.22242737 C-1.86092806 40.1396213 -1.74631244 34.05697026 -1.62768555 27.97436523 C-1.58426335 25.70161164 -1.54259384 23.42882387 -1.50268555 21.15600586 C-1.44515881 17.89686768 -1.38141448 14.63790269 -1.31640625 11.37890625 C-1.29969376 10.35599991 -1.28298126 9.33309357 -1.26576233 8.27919006 C-1.24581711 7.33829025 -1.22587189 6.39739044 -1.20532227 5.42797852 C-1.18977798 4.59524918 -1.1742337 3.76251984 -1.15821838 2.90455627 C-1 1 -1 1 0 0 Z M-2 61 C-2 63.31 -2 65.62 -2 68 C-1.67 68 -1.34 68 -1 68 C-1 65.69 -1 63.38 -1 61 C-1.33 61 -1.66 61 -2 61 Z M-2 69 C-2 71.31 -2 73.62 -2 76 C-1.67 76 -1.34 76 -1 76 C-1 73.69 -1 71.38 -1 69 C-1.33 69 -1.66 69 -2 69 Z M-2 77 C-2 81.95 -2 86.9 -2 92 C-1.67 92 -1.34 92 -1 92 C-1 87.05 -1 82.1 -1 77 C-1.33 77 -1.66 77 -2 77 Z " fill="#FFF8F0" transform="translate(819,408)"/>
<path d="M0 0 C0.66 0 1.32 0 2 0 C2 10.23 2 20.46 2 31 C1.67 31 1.34 31 1 31 C0.67 20.77 0.34 10.54 0 0 Z " fill="#FFF8F0" transform="translate(640,498)"/>
<path d="M0 0 C9.9 0 19.8 0 30 0 C30 0.33 30 0.66 30 1 C20.1 1 10.2 1 0 1 C0 0.67 0 0.34 0 0 Z " fill="#FFF8F0" transform="translate(187,480)"/>
<path d="M0 0 C0.33 0 0.66 0 1 0 C1 7.59 1 15.18 1 23 C0.67 23 0.34 23 0 23 C0 15.41 0 7.82 0 0 Z " fill="#FFF8F0" transform="translate(816,424)"/>
<path d="M0 0 C0.33 0 0.66 0 1 0 C1 2.97 1 5.94 1 9 C0.67 9 0.34 9 0 9 C0 6.03 0 3.06 0 0 Z " fill="#FFF8F0" transform="translate(641,479)"/>
<path d="M0 0 C0.33 0 0.66 0 1 0 C1 2.64 1 5.28 1 8 C0.67 8 0.34 8 0 8 C0 5.36 0 2.72 0 0 Z " fill="#FFF8F0" transform="translate(816,529)"/>
<path d="M0 0 C0.33 0 0.66 0 1 0 C1 2.64 1 5.28 1 8 C0.67 8 0.34 8 0 8 C0 5.36 0 2.72 0 0 Z " fill="#FFF8F0" transform="translate(160,488)"/>
<path d="M0 0 C0.33 0 0.66 0 1 0 C1 2.31 1 4.62 1 7 C0.67 7 0.34 7 0 7 C0 4.69 0 2.38 0 0 Z " fill="#FFF8F0" transform="translate(816,513)"/>
<path d="M0 0 C2.31 0 4.62 0 7 0 C7 0.33 7 0.66 7 1 C4.69 1 2.38 1 0 1 C0 0.67 0 0.34 0 0 Z " fill="#FFF8F0" transform="translate(523,480)"/>
<path d="M0 0 C1.32 0 2.64 0 4 0 C3.67 0.66 3.34 1.32 3 2 C2.01 1.67 1.02 1.34 0 1 C0 0.67 0 0.34 0 0 Z " fill="#FFF8F0" transform="translate(304,541)"/>
<path d="M0 0 C0.33 0 0.66 0 1 0 C1 1.98 1 3.96 1 6 C0.67 6 0.34 6 0 6 C0 4.02 0 2.04 0 0 Z " fill="#FFF8F0" transform="translate(641,530)"/>
<path d="M0 0 C1.65 0 3.3 0 5 0 C5 0.33 5 0.66 5 1 C3.35 1 1.7 1 0 1 C0 0.67 0 0.34 0 0 Z " fill="#FFF8F0" transform="translate(515,480)"/>
<path d="M0 0 C0.66 0.66 1.32 1.32 2 2 C1.01 2.33 0.02 2.66 -1 3 C-0.67 2.01 -0.34 1.02 0 0 Z " fill="#FFF8F0" transform="translate(397,473)"/>
<path d="M0 0 C0 3 0 3 0 3 Z " fill="#FFF8F0" transform="translate(481,517)"/>
<path d="M0 0 C1 4 1 4 1 4 Z " fill="#FFF8F0" transform="translate(816,448)"/>
<path d="M0 0 C1 4 1 4 1 4 Z " fill="#FFF8F0" transform="translate(816,417)"/>
<path d="M0 0 C0.66 0.66 1.32 1.32 2 2 C1.34 2 0.68 2 0 2 C0 1.34 0 0.68 0 0 Z " fill="#FFF8F0" transform="translate(481,764)"/>
<path d="M0 0 C3 1 3 1 3 1 Z " fill="#FFF8F0" transform="translate(385,693)"/>
<path d="M0 0 C0.66 0 1.32 0 2 0 C1.67 0.66 1.34 1.32 1 2 C0.67 1.34 0.34 0.68 0 0 Z " fill="#FFF8F0" transform="translate(434,573)"/>
<path d="M0 0 C3 1 3 1 3 1 Z " fill="#FFF8F0" transform="translate(521,541)"/>
<path d="" fill="#FFF8F0" transform="translate(0,0)"/>
<path d="M0 0 C3 1 3 1 3 1 Z " fill="#FFF8F0" transform="translate(171,526)"/>
<path d="" fill="#FFF8F0" transform="translate(0,0)"/>
<path d="M0 0 C0.33 0.66 0.66 1.32 1 2 C0.34 1.67 -0.32 1.34 -1 1 C-0.67 0.67 -0.34 0.34 0 0 Z " fill="#FFF8F0" transform="translate(370,513)"/>
<path d="" fill="#FFF8F0" transform="translate(0,0)"/>
<path d="" fill="#FFF8F0" transform="translate(0,0)"/>
<path d="" fill="#FFF8F0" transform="translate(0,0)"/>
<path d="M0 0 C3 1 3 1 3 1 Z " fill="#FFF8F0" transform="translate(533,480)"/>
<path d="M0 0 C3 1 3 1 3 1 Z " fill="#FFF8F0" transform="translate(222,480)"/>
<path d="M0 0 C0.66 0.66 1.32 1.32 2 2 C1.34 2 0.68 2 0 2 C0 1.34 0 0.68 0 0 Z " fill="#FFF8F0" transform="translate(324,470)"/>
<path d="" fill="#FFF8F0" transform="translate(0,0)"/>
<path d="" fill="#FFF8F0" transform="translate(0,0)"/>
<path d="" fill="#FFF8F0" transform="translate(0,0)"/>
<path d="M0 0 C2 1 2 1 2 1 Z " fill="#FFF8F0" transform="translate(390,575)"/>
<path d="M0 0 C2 1 2 1 2 1 Z " fill="#FFF8F0" transform="translate(431,574)"/>
<path d="" fill="#FFF8F0" transform="translate(0,0)"/>
<path d="M0 0 C2 1 2 1 2 1 Z " fill="#FFF8F0" transform="translate(298,541)"/>
<path d="" fill="#FFF8F0" transform="translate(0,0)"/>
<path d="M0 0 C2 1 2 1 2 1 Z " fill="#FFF8F0" transform="translate(434,530)"/>
<path d="M0 0 C2 1 2 1 2 1 Z " fill="#FFF8F0" transform="translate(577,528)"/>
<path d="" fill="#FFF8F0" transform="translate(0,0)"/>
<path d="M0 0 C2 1 2 1 2 1 Z " fill="#FFF8F0" transform="translate(426,513)"/>
<path d="" fill="#FFF8F0" transform="translate(0,0)"/>
<path d="" fill="#FFF8F0" transform="translate(0,0)"/>
<path d="" fill="#FFF8F0" transform="translate(0,0)"/>
<path d="" fill="#FFF8F0" transform="translate(0,0)"/>
<path d="M0 0 C2 1 2 1 2 1 Z " fill="#FFF8F0" transform="translate(472,498)"/>
<path d="" fill="#FFF8F0" transform="translate(0,0)"/>
<path d="" fill="#FFF8F0" transform="translate(0,0)"/>
<path d="" fill="#FFF8F0" transform="translate(0,0)"/>
<path d="" fill="#FFF8F0" transform="translate(0,0)"/>
<path d="" fill="#FFF8F0" transform="translate(0,0)"/>
<path d="M0 0 C2 1 2 1 2 1 Z " fill="#FFF8F0" transform="translate(512,480)"/>
<path d="M0 0 C2 1 2 1 2 1 Z " fill="#FFF8F0" transform="translate(509,480)"/>
<path d="M0 0 C2 1 2 1 2 1 Z " fill="#FFF8F0" transform="translate(504,480)"/>
<path d="" fill="#FFF8F0" transform="translate(0,0)"/>
<path d="M0 0 C2 1 2 1 2 1 Z " fill="#FFF8F0" transform="translate(696,474)"/>
<path d="" fill="#FFF8F0" transform="translate(0,0)"/>
<path d="" fill="#FFF8F0" transform="translate(0,0)"/>
<path d="" fill="#FFF8F0" transform="translate(0,0)"/>
<path d="M0 0 C2 1 2 1 2 1 Z " fill="#FFF8F0" transform="translate(744,465)"/>
<path d="M0 0 C2 1 2 1 2 1 Z " fill="#FFF8F0" transform="translate(480,465)"/>
<path d="M0 0 C2 1 2 1 2 1 Z " fill="#FFF8F0" transform="translate(604,451)"/>
<path d="M0 0 C2 1 2 1 2 1 Z " fill="#FFF8F0" transform="translate(176,448)"/>
<path d="M0 0 C2 1 2 1 2 1 Z " fill="#FFF8F0" transform="translate(576,447)"/>
<path d="M0 0 C2 1 2 1 2 1 Z " fill="#FFF8F0" transform="translate(399,443)"/>
<path d="M0 0 C2 1 2 1 2 1 Z " fill="#FFF8F0" transform="translate(456,441)"/>
<path d="" fill="#FFF8F0" transform="translate(0,0)"/>
<path d="" fill="#FFF8F0" transform="translate(0,0)"/>
<path d="M0 0 C2 1 2 1 2 1 Z " fill="#FFF8F0" transform="translate(498,381)"/>
<path d="" fill="#FFF8F0" transform="translate(0,0)"/>
<path d="" fill="#FFF8F0" transform="translate(0,0)"/>
<path d="" fill="#FFF8F0" transform="translate(0,0)"/>
<path d="" fill="#FFF8F0" transform="translate(0,0)"/>
<path d="" fill="#FFF8F0" transform="translate(0,0)"/>
<path d="" fill="#FFF8F0" transform="translate(0,0)"/>
<path d="" fill="#FFF8F0" transform="translate(0,0)"/>
<path d="" fill="#FFF8F0" transform="translate(0,0)"/>
<path d="" fill="#FFF8F0" transform="translate(0,0)"/>
<path d="" fill="#FFF8F0" transform="translate(0,0)"/>
<path d="" fill="#FFF8F0" transform="translate(0,0)"/>
<path d="" fill="#FFF8F0" transform="translate(0,0)"/>
<path d="" fill="#FFF8F0" transform="translate(0,0)"/>
<path d="" fill="#FFF8F0" transform="translate(0,0)"/>
<path d="" fill="#FFF8F0" transform="translate(0,0)"/>
<path d="" fill="#FFF8F0" transform="translate(0,0)"/>
<path d="" fill="#FFF8F0" transform="translate(0,0)"/>
<path d="" fill="#FFF8F0" transform="translate(0,0)"/>
<path d="" fill="#FFF8F0" transform="translate(0,0)"/>
<path d="" fill="#FFF8F0" transform="translate(0,0)"/>
<path d="" fill="#FFF8F0" transform="translate(0,0)"/>
<path d="" fill="#FFF8F0" transform="translate(0,0)"/>
<path d="" fill="#FFF8F0" transform="translate(0,0)"/>
<path d="" fill="#FFF8F0" transform="translate(0,0)"/>
<path d="" fill="#FFF8F0" transform="translate(0,0)"/>
<path d="" fill="#FFF8F0" transform="translate(0,0)"/>
<path d="" fill="#FFF8F0" transform="translate(0,0)"/>
<path d="" fill="#FFF8F0" transform="translate(0,0)"/>
<path d="" fill="#FFF8F0" transform="translate(0,0)"/>
<path d="" fill="#FFF8F0" transform="translate(0,0)"/>
<path d="" fill="#FFF8F0" transform="translate(0,0)"/>
<path d="" fill="#FFF8F0" transform="translate(0,0)"/>
<path d="" fill="#FFF8F0" transform="translate(0,0)"/>
<path d="" fill="#FFF8F0" transform="translate(0,0)"/>
<path d="" fill="#FFF8F0" transform="translate(0,0)"/>
<path d="" fill="#FFF8F0" transform="translate(0,0)"/>
<path d="" fill="#FFF8F0" transform="translate(0,0)"/>
<path d="" fill="#FFF8F0" transform="translate(0,0)"/>
<path d="" fill="#FFF8F0" transform="translate(0,0)"/>
<path d="" fill="#FFF8F0" transform="translate(0,0)"/>
<path d="" fill="#FFF8F0" transform="translate(0,0)"/>
<path d="" fill="#FFF8F0" transform="translate(0,0)"/>
<path d="" fill="#FFF8F0" transform="translate(0,0)"/>
<path d="" fill="#FFF8F0" transform="translate(0,0)"/>
<path d="" fill="#FFF8F0" transform="translate(0,0)"/>
<path d="" fill="#FFF8F0" transform="translate(0,0)"/>
<path d="" fill="#FFF8F0" transform="translate(0,0)"/>
<path d="" fill="#FFF8F0" transform="translate(0,0)"/>
<path d="" fill="#FFF8F0" transform="translate(0,0)"/>
<path d="" fill="#FFF8F0" transform="translate(0,0)"/>
<path d="" fill="#FFF8F0" transform="translate(0,0)"/>
<path d="" fill="#FFF8F0" transform="translate(0,0)"/>
<path d="" fill="#FFF8F0" transform="translate(0,0)"/>
<path d="" fill="#FFF8F0" transform="translate(0,0)"/>
<path d="" fill="#FFF8F0" transform="translate(0,0)"/>
<path d="" fill="#FFF8F0" transform="translate(0,0)"/>
<path d="" fill="#FFF8F0" transform="translate(0,0)"/>
<path d="" fill="#FFF8F0" transform="translate(0,0)"/>
<path d="" fill="#FFF8F0" transform="translate(0,0)"/>
<path d="" fill="#FFF8F0" transform="translate(0,0)"/>
<path d="" fill="#FFF8F0" transform="translate(0,0)"/>
<path d="" fill="#FFF8F0" transform="translate(0,0)"/>
<path d="" fill="#FFF8F0" transform="translate(0,0)"/>
<path d="" fill="#FFF8F0" transform="translate(0,0)"/>
<path d="" fill="#FFF8F0" transform="translate(0,0)"/>
<path d="" fill="#FFF8F0" transform="translate(0,0)"/>
<path d="" fill="#FFF8F0" transform="translate(0,0)"/>
<path d="" fill="#FFF8F0" transform="translate(0,0)"/>
<path d="" fill="#FFF8F0" transform="translate(0,0)"/>
<path d="" fill="#FFF8F0" transform="translate(0,0)"/>
<path d="" fill="#FFF8F0" transform="translate(0,0)"/>
<path d="" fill="#FFF8F0" transform="translate(0,0)"/>
<path d="" fill="#FFF8F0" transform="translate(0,0)"/>
<path d="" fill="#FFF8F0" transform="translate(0,0)"/>
<path d="" fill="#FFF8F0" transform="translate(0,0)"/>
<path d="" fill="#FFF8F0" transform="translate(0,0)"/>
<path d="" fill="#FFF8F0" transform="translate(0,0)"/>
<path d="" fill="#FFF8F0" transform="translate(0,0)"/>
<path d="" fill="#FFF8F0" transform="translate(0,0)"/>
<path d="" fill="#FFF8F0" transform="translate(0,0)"/>
<path d="" fill="#FFF8F0" transform="translate(0,0)"/>
<path d="" fill="#FFF8F0" transform="translate(0,0)"/>
<path d="" fill="#FFF8F0" transform="translate(0,0)"/>
<path d="" fill="#FFF8F0" transform="translate(0,0)"/>
<path d="" fill="#FFF8F0" transform="translate(0,0)"/>
<path d="" fill="#FFF8F0" transform="translate(0,0)"/>
<path d="" fill="#FFF8F0" transform="translate(0,0)"/>
<path d="" fill="#FFF8F0" transform="translate(0,0)"/>
<path d="" fill="#FFF8F0" transform="translate(0,0)"/>
<path d="" fill="#FFF8F0" transform="translate(0,0)"/>
<path d="" fill="#FFF8F0" transform="translate(0,0)"/>
<path d="" fill="#FFF8F0" transform="translate(0,0)"/>
<path d="" fill="#FFF8F0" transform="translate(0,0)"/>
<path d="" fill="#FFF8F0" transform="translate(0,0)"/>
<path d="" fill="#FFF8F0" transform="translate(0,0)"/>
<path d="" fill="#FFF8F0" transform="translate(0,0)"/>
<path d="" fill="#FFF8F0" transform="translate(0,0)"/>
<path d="" fill="#FFF8F0" transform="translate(0,0)"/>
<path d="" fill="#FFF8F0" transform="translate(0,0)"/>
<path d="" fill="#FFF8F0" transform="translate(0,0)"/>
<path d="" fill="#FFF8F0" transform="translate(0,0)"/>
<path d="" fill="#FFF8F0" transform="translate(0,0)"/>
<path d="" fill="#FFF8F0" transform="translate(0,0)"/>
<path d="" fill="#FFF8F0" transform="translate(0,0)"/>
<path d="" fill="#FFF8F0" transform="translate(0,0)"/>
<path d="" fill="#FFF8F0" transform="translate(0,0)"/>
<path d="" fill="#FFF8F0" transform="translate(0,0)"/>
<path d="" fill="#FFF8F0" transform="translate(0,0)"/>
<path d="" fill="#FFF8F0" transform="translate(0,0)"/>
<path d="" fill="#FFF8F0" transform="translate(0,0)"/>
<path d="" fill="#FFF8F0" transform="translate(0,0)"/>
<path d="" fill="#FFF8F0" transform="translate(0,0)"/>
<path d="" fill="#FFF8F0" transform="translate(0,0)"/>
<path d="" fill="#FFF8F0" transform="translate(0,0)"/>
<path d="" fill="#FFF8F0" transform="translate(0,0)"/>
<path d="" fill="#FFF8F0" transform="translate(0,0)"/>
<path d="" fill="#FFF8F0" transform="translate(0,0)"/>
<path d="" fill="#FFF8F0" transform="translate(0,0)"/>
<path d="" fill="#FFF8F0" transform="translate(0,0)"/>
<path d="" fill="#FFF8F0" transform="translate(0,0)"/>
<path d="" fill="#FFF8F0" transform="translate(0,0)"/>
<path d="" fill="#FFF8F0" transform="translate(0,0)"/>
<path d="" fill="#FFF8F0" transform="translate(0,0)"/>
<path d="" fill="#FFF8F0" transform="translate(0,0)"/>
<path d="" fill="#FFF8F0" transform="translate(0,0)"/>
<path d="" fill="#FFF8F0" transform="translate(0,0)"/>
<path d="" fill="#FFF8F0" transform="translate(0,0)"/>
<path d="" fill="#FFF8F0" transform="translate(0,0)"/>
<path d="" fill="#FFF8F0" transform="translate(0,0)"/>
<path d="" fill="#FFF8F0" transform="translate(0,0)"/>
<path d="" fill="#FFF8F0" transform="translate(0,0)"/>
<path d="" fill="#FFF8F0" transform="translate(0,0)"/>
<path d="" fill="#FFF8F0" transform="translate(0,0)"/>
<path d="" fill="#FFF8F0" transform="translate(0,0)"/>
<path d="" fill="#FFF8F0" transform="translate(0,0)"/>
<path d="" fill="#FFF8F0" transform="translate(0,0)"/>
<path d="" fill="#FFF8F0" transform="translate(0,0)"/>
<path d="" fill="#FFF8F0" transform="translate(0,0)"/>
<path d="" fill="#FFF8F0" transform="translate(0,0)"/>
<path d="" fill="#FFF8F0" transform="translate(0,0)"/>
<path d="" fill="#FFF8F0" transform="translate(0,0)"/>
<path d="" fill="#FFF8F0" transform="translate(0,0)"/>
<path d="" fill="#FFF8F0" transform="translate(0,0)"/>
<path d="" fill="#FFF8F0" transform="translate(0,0)"/>
<path d="" fill="#FFF8F0" transform="translate(0,0)"/>
<path d="" fill="#FFF8F0" transform="translate(0,0)"/>
<path d="" fill="#FFF8F0" transform="translate(0,0)"/>
<path d="" fill="#FFF8F0" transform="translate(0,0)"/>
<path d="" fill="#FFF8F0" transform="translate(0,0)"/>
<path d="" fill="#FFF8F0" transform="translate(0,0)"/>
<path d="" fill="#FFF8F0" transform="translate(0,0)"/>
<path d="" fill="#FFF8F0" transform="translate(0,0)"/>
<path d="" fill="#FFF8F0" transform="translate(0,0)"/>
<path d="" fill="#FFF8F0" transform="translate(0,0)"/>
<path d="" fill="#FFF8F0" transform="translate(0,0)"/>
<path d="" fill="#FFF8F0" transform="translate(0,0)"/>
<path d="" fill="#FFF8F0" transform="translate(0,0)"/>
<path d="" fill="#FFF8F0" transform="translate(0,0)"/>
<path d="" fill="#FFF8F0" transform="translate(0,0)"/>
<path d="" fill="#FFF8F0" transform="translate(0,0)"/>
<path d="" fill="#FFF8F0" transform="translate(0,0)"/>
<path d="" fill="#FFF8F0" transform="translate(0,0)"/>
<path d="" fill="#FFF8F0" transform="translate(0,0)"/>
<path d="" fill="#FFF8F0" transform="translate(0,0)"/>
<path d="" fill="#FFF8F0" transform="translate(0,0)"/>
<path d="" fill="#FFF8F0" transform="translate(0,0)"/>
<path d="" fill="#FFF8F0" transform="translate(0,0)"/>
<path d="" fill="#FFF8F0" transform="translate(0,0)"/>
<path d="" fill="#FFF8F0" transform="translate(0,0)"/>
<path d="" fill="#FFF8F0" transform="translate(0,0)"/>
<path d="" fill="#FFF8F0" transform="translate(0,0)"/>
<path d="" fill="#FFF8F0" transform="translate(0,0)"/>
<path d="" fill="#FFF8F0" transform="translate(0,0)"/>
<path d="" fill="#FFF8F0" transform="translate(0,0)"/>
<path d="" fill="#FFF8F0" transform="translate(0,0)"/>
<path d="" fill="#FFF8F0" transform="translate(0,0)"/>
<path d="" fill="#FFF8F0" transform="translate(0,0)"/>
<path d="" fill="#FFF8F0" transform="translate(0,0)"/>
<path d="" fill="#FFF8F0" transform="translate(0,0)"/>
<path d="" fill="#FFF8F0" transform="translate(0,0)"/>
<path d="" fill="#FFF8F0" transform="translate(0,0)"/>
<path d="" fill="#FFF8F0" transform="translate(0,0)"/>
<path d="" fill="#FFF8F0" transform="translate(0,0)"/>
<path d="" fill="#FFF8F0" transform="translate(0,0)"/>
<path d="" fill="#FFF8F0" transform="translate(0,0)"/>
<path d="" fill="#FFF8F0" transform="translate(0,0)"/>
<path d="" fill="#FFF8F0" transform="translate(0,0)"/>
<path d="" fill="#FFF8F0" transform="translate(0,0)"/>
<path d="" fill="#FFF8F0" transform="translate(0,0)"/>
<path d="" fill="#FFF8F0" transform="translate(0,0)"/>
<path d="" fill="#FFF8F0" transform="translate(0,0)"/>
<path d="" fill="#FFF8F0" transform="translate(0,0)"/>
<path d="" fill="#FFF8F0" transform="translate(0,0)"/>
<path d="" fill="#FFF8F0" transform="translate(0,0)"/>
<path d="" fill="#FFF8F0" transform="translate(0,0)"/>
<path d="" fill="#FFF8F0" transform="translate(0,0)"/>
<path d="" fill="#FFF8F0" transform="translate(0,0)"/>
<path d="" fill="#FFF8F0" transform="translate(0,0)"/>
<path d="" fill="#FFF8F0" transform="translate(0,0)"/>
<path d="" fill="#FFF8F0" transform="translate(0,0)"/>
<path d="" fill="#FFF8F0" transform="translate(0,0)"/>
<path d="" fill="#FFF8F0" transform="translate(0,0)"/>
<path d="" fill="#FFF8F0" transform="translate(0,0)"/>
<path d="" fill="#FFF8F0" transform="translate(0,0)"/>
<path d="" fill="#FFF8F0" transform="translate(0,0)"/>
<path d="" fill="#FFF8F0" transform="translate(0,0)"/>
<path d="" fill="#FFF8F0" transform="translate(0,0)"/>
<path d="" fill="#FFF8F0" transform="translate(0,0)"/>
<path d="" fill="#FFF8F0" transform="translate(0,0)"/>
<path d="" fill="#FFF8F0" transform="translate(0,0)"/>
<path d="" fill="#FFF8F0" transform="translate(0,0)"/>
<path d="" fill="#FFF8F0" transform="translate(0,0)"/>
<path d="" fill="#FFF8F0" transform="translate(0,0)"/>
<path d="" fill="#FFF8F0" transform="translate(0,0)"/>
<path d="" fill="#FFF8F0" transform="translate(0,0)"/>
<path d="" fill="#FFF8F0" transform="translate(0,0)"/>
<path d="" fill="#FFF8F0" transform="translate(0,0)"/>
<path d="" fill="#FFF8F0" transform="translate(0,0)"/>
<path d="" fill="#FFF8F0" transform="translate(0,0)"/>
<path d="" fill="#FFF8F0" transform="translate(0,0)"/>
<path d="" fill="#FFF8F0" transform="translate(0,0)"/>
<path d="" fill="#FFF8F0" transform="translate(0,0)"/>
<path d="" fill="#FFF8F0" transform="translate(0,0)"/>
<path d="" fill="#FFF8F0" transform="translate(0,0)"/>
<path d="" fill="#FFF8F0" transform="translate(0,0)"/>
<path d="" fill="#FFF8F0" transform="translate(0,0)"/>
<path d="" fill="#FFF8F0" transform="translate(0,0)"/>
<path d="" fill="#FFF8F0" transform="translate(0,0)"/>
<path d="" fill="#FFF8F0" transform="translate(0,0)"/>
<path d="" fill="#FFF8F0" transform="translate(0,0)"/>
<path d="" fill="#FFF8F0" transform="translate(0,0)"/>
<path d="" fill="#FFF8F0" transform="translate(0,0)"/>
<path d="" fill="#FFF8F0" transform="translate(0,0)"/>
<path d="" fill="#FFF8F0" transform="translate(0,0)"/>
<path d="" fill="#FFF8F0" transform="translate(0,0)"/>
<path d="" fill="#FFF8F0" transform="translate(0,0)"/>
<path d="" fill="#FFF8F0" transform="translate(0,0)"/>
<path d="" fill="#FFF8F0" transform="translate(0,0)"/>
<path d="" fill="#FFF8F0" transform="translate(0,0)"/>
<path d="" fill="#FFF8F0" transform="translate(0,0)"/>
<path d="" fill="#FFF8F0" transform="translate(0,0)"/>
<path d="" fill="#FFF8F0" transform="translate(0,0)"/>
<path d="" fill="#FFF8F0" transform="translate(0,0)"/>
<path d="" fill="#FFF8F0" transform="translate(0,0)"/>
<path d="" fill="#FFF8F0" transform="translate(0,0)"/>
<path d="" fill="#FFF8F0" transform="translate(0,0)"/>
<path d="" fill="#FFF8F0" transform="translate(0,0)"/>
<path d="" fill="#FFF8F0" transform="translate(0,0)"/>
<path d="" fill="#FFF8F0" transform="translate(0,0)"/>
<path d="" fill="#FFF8F0" transform="translate(0,0)"/>
<path d="" fill="#FFF8F0" transform="translate(0,0)"/>
<path d="" fill="#FFF8F0" transform="translate(0,0)"/>
<path d="" fill="#FFF8F0" transform="translate(0,0)"/>
<path d="" fill="#FFF8F0" transform="translate(0,0)"/>
<path d="" fill="#FFF8F0" transform="translate(0,0)"/>
<path d="" fill="#FFF8F0" transform="translate(0,0)"/>
<path d="" fill="#FFF8F0" transform="translate(0,0)"/>
<path d="" fill="#FFF8F0" transform="translate(0,0)"/>
<path d="" fill="#FFF8F0" transform="translate(0,0)"/>
<path d="" fill="#FFF8F0" transform="translate(0,0)"/>
<path d="" fill="#FFF8F0" transform="translate(0,0)"/>
<path d="" fill="#FFF8F0" transform="translate(0,0)"/>
<path d="" fill="#FFF8F0" transform="translate(0,0)"/>
<path d="" fill="#FFF8F0" transform="translate(0,0)"/>
<path d="" fill="#FFF8F0" transform="translate(0,0)"/>
<path d="" fill="#FFF8F0" transform="translate(0,0)"/>
<path d="" fill="#FFF8F0" transform="translate(0,0)"/>
<path d="" fill="#FFF8F0" transform="translate(0,0)"/>
<path d="" fill="#FFF8F0" transform="translate(0,0)"/>
<path d="" fill="#FFF8F0" transform="translate(0,0)"/>
<path d="" fill="#FFF8F0" transform="translate(0,0)"/>
<path d="" fill="#FFF8F0" transform="translate(0,0)"/>
<path d="" fill="#FFF8F0" transform="translate(0,0)"/>
<path d="" fill="#FFF8F0" transform="translate(0,0)"/>
<path d="" fill="#FFF8F0" transform="translate(0,0)"/>
<path d="" fill="#FFF8F0" transform="translate(0,0)"/>
<path d="" fill="#FFF8F0" transform="translate(0,0)"/>
<path d="" fill="#FFF8F0" transform="translate(0,0)"/>
<path d="" fill="#FFF8F0" transform="translate(0,0)"/>
<path d="" fill="#FFF8F0" transform="translate(0,0)"/>
</svg>
